<svg width="20" height="19" viewBox="0 0 20 19" fill="none" xmlns="http://www.w3.org/2000/svg">
<path d="M0 19C0 18.879 0.00666004 18.7244 0.0199801 18.5361C0.0333002 18.3479 0.104895 18.0403 0.234765 17.6133C0.364636 17.1864 0.54612 16.8553 0.779221 16.62C1.00566 16.3914 1.44522 16.141 2.0979 15.8687C2.75059 15.5964 3.4915 15.309 4.32068 15.0064C5.14985 14.7039 5.7609 14.4518 6.15385 14.2501C6.64669 14.008 7.02631 13.64 7.29271 13.1458C7.55911 12.6516 7.69231 12.1424 7.69231 11.618C7.69231 11.2482 7.48252 10.8246 7.06294 10.3473C6.81652 10.0515 6.6034 9.64807 6.42358 9.13711C5.83083 8.88835 5.53447 8.38748 5.53447 7.63448C5.53447 7.07645 5.63103 6.67306 5.82418 6.42431C5.7709 6.04781 5.71096 5.49315 5.64436 4.76032C5.63104 4.65275 5.61605 4.50988 5.5994 4.33172C5.58275 4.15355 5.5994 3.84933 5.64935 3.41905C5.6993 2.98876 5.80419 2.62572 5.96404 2.32989C6.21712 1.87944 6.53846 1.5685 6.92807 1.39705C7.31768 1.22561 7.6357 1.19368 7.88212 1.30125C7.88878 1.30125 7.89211 1.29789 7.89211 1.29116C7.90543 1.22393 7.9354 1.13485 7.98202 1.02392C8.02864 0.912985 8.12521 0.765077 8.27173 0.580189C8.41825 0.395301 8.58808 0.252435 8.78122 0.151586C8.88778 0.0978008 9.06094 0.0557816 9.3007 0.0255272C9.54046 -0.00472725 9.83183 -0.00808886 10.1748 0.0154424C10.5178 0.0389736 10.8741 0.0910776 11.2438 0.171756C11.6134 0.252435 11.983 0.398662 12.3526 0.610443C12.7223 0.822224 13.0536 1.08274 13.3467 1.39201C13.6397 1.70128 13.8811 2.10971 14.0709 2.61731C14.2607 3.12491 14.359 3.70142 14.3656 4.34685C14.3723 4.48803 14.3723 4.62586 14.3656 4.76032C14.3124 5.37886 14.2491 5.93351 14.1758 6.42431C14.369 6.67306 14.4655 7.07645 14.4655 7.63448C14.4655 8.38748 14.1692 8.88835 13.5764 9.13711C13.3966 9.64807 13.1835 10.0515 12.9371 10.3473C12.5175 10.8246 12.3077 11.2482 12.3077 11.618C12.3077 12.1424 12.4409 12.6516 12.7073 13.1458C12.9737 13.64 13.3533 14.008 13.8462 14.2501C14.2391 14.4518 14.8501 14.7039 15.6793 15.0064C16.5085 15.309 17.2511 15.5964 17.9071 15.8687C18.5631 16.141 19.0043 16.3914 19.2308 16.62C19.4639 16.8553 19.6437 17.1713 19.7702 17.568C19.8968 17.9646 19.9667 18.3041 19.98 18.5865L20 19H0Z" fill="#76767A"/>
</svg>
