<svg width="15" height="9" viewBox="0 0 15 9" fill="none" xmlns="http://www.w3.org/2000/svg">
<path d="M7.5 6.22427L13.1696 0.325149C13.378 0.108382 13.631 0 13.9286 0C14.2262 0 14.4792 0.108382 14.6875 0.325149C14.8958 0.541915 15 0.805128 15 1.11479C15 1.42446 14.8958 1.68767 14.6875 1.90444L8.25893 8.59321C7.75297 9.11964 7.26191 9.13513 6.78571 8.63966L0.3125 1.90444C0.104165 1.68767 0 1.42446 0 1.11479C0 0.805128 0.104165 0.541915 0.3125 0.325149C0.520834 0.108382 0.773808 0 1.07143 0C1.36905 0 1.62202 0.108382 1.83036 0.325149L7.5 6.22427Z" fill="#A7A7AB"/>
</svg>
