<svg width="12" height="16" viewBox="0 0 12 16" fill="none" xmlns="http://www.w3.org/2000/svg">
<path d="M0.652174 2.66667H11.3913L10.3478 14.7917C10.3478 15.125 10.2246 15.4097 9.97826 15.6458C9.73188 15.8819 9.43478 16 9.08696 16H2.95652C2.60869 16 2.3116 15.8819 2.06522 15.6458C1.81884 15.4097 1.69565 15.125 1.69565 14.7917L0.652174 2.66667ZM3.34783 13.7083H4.13043L3.82609 4H3.04348L3.34783 13.7083ZM6.3913 13.7083V4H5.6087V13.7083H6.3913ZM8.65217 13.7083L8.95652 4H8.17391L7.86957 13.7083H8.65217ZM10.6957 1.16667C11.5652 1.16667 12 1.52777 12 2.25H0C0 1.52777 0.434778 1.16667 1.30435 1.16667H2.86957L4 0.208333C4.2029 0.0694438 4.4058 0 4.6087 0H7.3913C7.5942 0 7.7971 0.0694438 8 0.208333L9.13043 1.16667H10.6957Z" fill="#76767A"/>
</svg>
