<svg width="19" height="20" viewBox="0 0 19 20" fill="none" xmlns="http://www.w3.org/2000/svg">
<path d="M14.1022 17.1429H0.351852C0.157278 17.1429 0 17.3029 0 17.5C0 17.6971 0.157278 17.8571 0.351852 17.8571H14.1022C14.2739 19.0668 15.2989 20 16.537 20C17.8948 20 19 18.8786 19 17.5C19 16.1214 17.8948 15 16.537 15C15.2989 15 14.2739 15.9332 14.1022 17.1429Z" fill="#76767A"/>
<path d="M6.92972 9.64286H0.351852C0.157278 9.64286 0 9.80286 0 10C0 10.1971 0.157278 10.3571 0.351852 10.3571H6.90756C7.04689 11.6436 8.12356 12.6479 9.42717 12.6479C10.7308 12.6479 11.8074 11.6436 11.9468 10.3571H18.6481C18.8427 10.3571 19 10.1971 19 10C19 9.80286 18.8427 9.64286 18.6481 9.64286H11.9246C11.7216 8.42857 10.6805 7.5 9.42717 7.5C8.17387 7.5 7.13274 8.42857 6.92972 9.64286Z" fill="#76767A"/>
<path d="M2.46296 0C1.10517 0 0 1.12143 0 2.5C0 3.87857 1.10517 5 2.46296 5C3.70113 5 4.72607 4.06679 4.89778 2.85714H18.6481C18.8427 2.85714 19 2.69714 19 2.5C19 2.30286 18.8427 2.14286 18.6481 2.14286H4.89778C4.72607 0.933214 3.70113 0 2.46296 0Z" fill="#76767A"/>
</svg>
