<svg width="10" height="10" viewBox="0 0 10 10" fill="none" xmlns="http://www.w3.org/2000/svg">
<path d="M8.46154 8.96635C8.46154 9.25481 8.35737 9.4992 8.14904 9.69952C7.9407 9.89984 7.70032 10 7.42788 10H1.03365C0.745191 10 0.500802 9.89984 0.300481 9.69952C0.100159 9.4992 0 9.25481 0 8.96635V2.57212C0 2.28365 0.100159 2.03926 0.300481 1.83894C0.500802 1.63862 0.745191 1.53846 1.03365 1.53846H7.42788C7.71635 1.53846 7.96074 1.63862 8.16106 1.83894C8.36138 2.03926 8.46154 2.28365 8.46154 2.57212V8.96635ZM2.62019 6.15385L1.03365 8.46154H7.42788L5.3125 5.38462L3.72596 7.69231L2.62019 6.15385ZM8.96635 0C9.25481 0 9.4992 0.100159 9.69952 0.300481C9.89984 0.500802 10 0.745191 10 1.03365V7.42788C10 7.71635 9.89984 7.96074 9.69952 8.16106C9.4992 8.36138 9.25481 8.46154 8.96635 8.46154H8.84615V7.69231V2.1875C8.84615 1.89904 8.74599 1.65465 8.54567 1.45433C8.34535 1.25401 8.10096 1.15385 7.8125 1.15385H2.30769H1.53846V1.03365C1.53846 0.745191 1.63862 0.500802 1.83894 0.300481C2.03926 0.100159 2.28365 0 2.57212 0H8.96635Z" fill="#004DB2"/>
</svg>
