<svg width="15" height="20" viewBox="0 0 15 20" fill="none" xmlns="http://www.w3.org/2000/svg">
<path d="M6.71875 19.6094C6.09375 18.6979 5.38412 17.6693 4.58984 16.5234C3.79557 15.3776 3.22917 14.5703 2.89062 14.1016C2.55208 13.6328 2.16146 13.0534 1.71875 12.3633C1.27604 11.6732 0.983074 11.1849 0.839844 10.8984C0.696614 10.612 0.540365 10.2474 0.371094 9.80469C0.201822 9.36198 0.0976564 8.97787 0.0585937 8.65234C0.019531 8.32682 0 7.94271 0 7.5C0 5.41666 0.729159 3.64584 2.1875 2.1875C3.64584 0.729159 5.41666 0 7.5 0C9.58334 0 11.3542 0.729159 12.8125 2.1875C14.2708 3.64584 15 5.41666 15 7.5C15 7.94271 14.9805 8.32682 14.9414 8.65234C14.9023 8.97787 14.7982 9.36198 14.6289 9.80469C14.4596 10.2474 14.3034 10.612 14.1602 10.8984C14.0169 11.1849 13.724 11.6732 13.2812 12.3633C12.8385 13.0534 12.4479 13.6328 12.1094 14.1016C11.7708 14.5703 11.2044 15.3776 10.4102 16.5234C9.61588 17.6693 8.90625 18.6979 8.28125 19.6094C8.09896 19.8698 7.83854 20 7.5 20C7.16146 20 6.90104 19.8698 6.71875 19.6094ZM5.27344 9.72656C5.89844 10.3255 6.64062 10.625 7.5 10.625C8.35938 10.625 9.09505 10.319 9.70703 9.70703C10.319 9.09505 10.625 8.35938 10.625 7.5C10.625 6.64062 10.319 5.90495 9.70703 5.29297C9.09505 4.68099 8.35938 4.375 7.5 4.375C6.64062 4.375 5.90495 4.68099 5.29297 5.29297C4.68099 5.90495 4.375 6.64062 4.375 7.5C4.375 8.35938 4.67448 9.10156 5.27344 9.72656Z" fill="#004DB2"/>
</svg>
