<svg width="7" height="10" viewBox="0 0 7 10" fill="none" xmlns="http://www.w3.org/2000/svg">
<path d="M4.73731 4.51172C5.0791 4.1862 5.25 3.7934 5.25 3.33333C5.25 2.87326 5.0791 2.48047 4.73731 2.15495C4.39551 1.82943 3.98308 1.66667 3.5 1.66667C3.01692 1.66667 2.60449 1.82943 2.2627 2.15495C1.9209 2.48047 1.75 2.87326 1.75 3.33333C1.75 3.7934 1.9209 4.1862 2.2627 4.51172C2.60449 4.83724 3.01692 5 3.5 5C3.98308 5 4.39551 4.83724 4.73731 4.51172ZM7 3.33333C7 3.80643 6.92481 4.19488 6.77441 4.4987L4.28613 9.53776C4.21322 9.68099 4.10498 9.79384 3.96143 9.8763C3.81787 9.95877 3.66406 10 3.5 10C3.33594 10 3.18213 9.95877 3.03857 9.8763C2.89502 9.79384 2.78906 9.68099 2.7207 9.53776L0.225586 4.4987C0.0751945 4.19488 0 3.80643 0 3.33333C0 2.41319 0.341794 1.62761 1.02539 0.976563C1.70899 0.325518 2.53385 0 3.5 0C4.46615 0 5.29101 0.325518 5.97461 0.976563C6.65821 1.62761 7 2.41319 7 3.33333Z" fill="#004DB2"/>
</svg>
