<svg width="155" height="40" viewBox="0 0 155 40" fill="none" xmlns="http://www.w3.org/2000/svg">
<path fill-rule="evenodd" clip-rule="evenodd" d="M73.9169 3C72.9394 3 72.0284 3.16128 71.1896 3.49017L71.1869 3.49127C70.3623 3.82026 69.6478 4.29518 69.0496 4.91547C68.4627 5.52477 68.0087 6.27102 67.6814 7.14346L67.679 7.15011C67.3631 8.03034 67.2097 9.01151 67.2097 10.0871V11.1165C67.2097 12.2045 67.3629 13.1925 67.679 14.0733C67.9928 14.9476 68.4397 15.701 69.0254 16.3236L69.0339 16.3321C69.6318 16.9378 70.3448 17.4043 71.1668 17.7322L71.1766 17.7359C72.0143 18.0501 72.9296 18.2036 73.9169 18.2036C74.8916 18.2036 75.7945 18.0499 76.6198 17.7349L76.624 17.7332C77.4619 17.4047 78.1787 16.9296 78.766 16.306C79.365 15.6841 79.8193 14.9312 80.1335 14.0568C80.4637 13.1754 80.624 12.193 80.624 11.1165V10.0871C80.624 8.99992 80.471 8.01796 80.1543 7.1491C79.8401 6.27373 79.3856 5.52002 78.786 4.8976C78.1983 4.27366 77.4808 3.80469 76.642 3.48933C75.8153 3.16028 74.9046 3 73.9169 3ZM70.7335 10.0871C70.7335 8.70086 71.0531 7.75344 71.6041 7.15394C72.1802 6.52859 72.935 6.20701 73.9169 6.20701C74.3866 6.20701 74.8109 6.29387 75.1963 6.46199L75.2079 6.46668C75.5884 6.6216 75.9106 6.85221 76.1796 7.16258L76.1859 7.16978L76.1924 7.17674C76.4663 7.4692 76.6867 7.85558 76.8423 8.35279L76.8445 8.35961L76.8468 8.36638C77.0121 8.8451 77.1002 9.41599 77.1002 10.0871V11.1165C77.1002 12.4988 76.7758 13.4537 76.2111 14.0678C75.6347 14.6816 74.8857 14.9966 73.9169 14.9966C72.9664 14.9966 72.2154 14.6784 71.6225 14.048C71.0572 13.4331 70.7335 12.4841 70.7335 11.1165V10.0871Z" fill="black"/>
<path d="M54.9402 3.17817H50.5005V18.0255H53.9042V8.95252L56.1726 14.3631H59.2449L61.5122 8.90734V18.0255H64.9159V3.17817H60.5163L57.7282 9.87566L54.9402 3.17817Z" fill="black"/>
<path fill-rule="evenodd" clip-rule="evenodd" d="M88.0311 3.17817H82.9257V18.0255H88.0311C90.2898 18.0255 92.0955 17.4489 93.3661 16.2217L93.3682 16.2196C94.6349 14.9817 95.2388 13.2706 95.2388 11.1561V10.0475C95.2388 7.91167 94.6444 6.19741 93.3872 4.98297C92.1281 3.75326 90.3135 3.17817 88.0311 3.17817ZM86.3293 14.9372V6.2664H88.0311C89.3214 6.2664 90.2139 6.59955 90.7972 7.18717L90.8005 7.19045C91.3786 7.76207 91.715 8.68059 91.715 10.0475V11.1561C91.715 12.5378 91.3778 13.4621 90.8005 14.033L90.7971 14.0363C90.2297 14.6082 89.3396 14.9372 88.0311 14.9372H86.3293Z" fill="black"/>
<path d="M107.546 3.17817H97.535V18.0255H107.546V14.9372H100.939V11.948H106.344V8.85973H100.939V6.2664H107.546V3.17817Z" fill="black"/>
<path fill-rule="evenodd" clip-rule="evenodd" d="M115.065 3.17817H109.739V18.0255H113.143V12.7992H115.233L117.816 18.0255H121.679L118.541 12.1096C119.258 11.757 119.829 11.2736 120.232 10.6508L120.234 10.6471C120.719 9.88308 120.951 8.99016 120.951 7.98869C120.951 6.52877 120.476 5.32896 119.484 4.45343C118.495 3.56815 116.984 3.17817 115.065 3.17817ZM113.143 9.71097V6.2664H115.065C116.018 6.2664 116.597 6.45832 116.916 6.73649C117.246 7.0242 117.428 7.42132 117.428 7.98869C117.428 8.53768 117.249 8.9392 116.913 9.24346C116.594 9.52024 116.016 9.71097 115.065 9.71097H113.143Z" fill="black"/>
<path d="M127.323 3.17817H123.156V18.0255H126.56V8.8491L131.402 18.0255H135.569V3.17817H132.166V12.3545L127.323 3.17817Z" fill="black"/>
<path d="M56.607 22.7964C55.6429 22.7964 54.745 22.9577 53.9193 23.2868C53.1047 23.6035 52.4016 24.0737 51.8158 24.6963C51.2303 25.3186 50.7834 26.0716 50.4697 26.9454C50.153 27.8143 50 28.7963 50 29.8835V30.9129C50 32.0133 50.153 33.008 50.4693 33.8895L50.4702 33.8919C50.7834 34.7506 51.2222 35.4947 51.7915 36.1153L51.7958 36.1199C52.382 36.743 53.0859 37.2135 53.9013 37.5302L53.9041 37.5313C54.7294 37.8462 55.6323 38 56.607 38C57.4704 38 58.2642 37.8741 58.982 37.6134L58.9903 37.6102C59.6949 37.34 60.3153 36.9734 60.8443 36.5085C61.3846 36.0321 61.817 35.4746 62.1391 34.8382C62.4716 34.1945 62.6938 33.4969 62.808 32.7486L62.8949 32.1799H59.2731L59.1829 32.5623C59.015 33.2736 58.7053 33.814 58.2697 34.2116C57.8554 34.5897 57.3155 34.793 56.607 34.793C56.1477 34.793 55.7344 34.7118 55.361 34.5551C54.9923 34.4005 54.6749 34.1758 54.4049 33.8775C54.1465 33.5644 53.929 33.1687 53.7595 32.68C53.6054 32.1847 53.5237 31.5979 53.5237 30.9129V29.8835C53.5237 28.4817 53.8378 27.5272 54.3764 26.9283C54.9408 26.3154 55.6691 26.0034 56.607 26.0034C56.9725 26.0034 57.2876 26.0558 57.5587 26.1523C57.8465 26.2548 58.0917 26.3884 58.299 26.5502C58.506 26.7118 58.6807 26.9058 58.8242 27.135L58.8302 27.1442C58.9812 27.3739 59.1037 27.6216 59.1975 27.8883L59.3144 28.2206H62.9082L62.8062 27.6409C62.69 26.9799 62.4645 26.3596 62.13 25.7828C61.8068 25.1892 61.3808 24.6741 60.8547 24.2399C60.3237 23.7886 59.6966 23.4376 58.9806 23.1826C58.2632 22.9222 57.4698 22.7964 56.607 22.7964Z" fill="black"/>
<path d="M104.858 22.7964C102.819 22.7964 101.171 23.3979 99.9873 24.6556C98.8042 25.8992 98.2506 27.6618 98.2506 29.8637V30.9327C98.2506 32.0434 98.396 33.0425 98.6975 33.9223C98.9981 34.8 99.4402 35.551 100.03 36.1637C100.616 36.7722 101.319 37.2344 102.132 37.5501L102.139 37.5528C102.952 37.8542 103.861 38 104.858 38C106.74 38 108.277 37.4362 109.405 36.2623L109.407 36.26C110.539 35.0667 111.064 33.348 111.064 31.19V29.6657H104.157V32.6748H107.68C107.528 33.4179 107.252 33.9036 106.899 34.1957L106.894 34.1995C106.453 34.5732 105.797 34.793 104.858 34.793C103.918 34.793 103.189 34.4859 102.625 33.8862C102.088 33.2871 101.774 32.3332 101.774 30.9327V29.8637C101.774 28.3929 102.075 27.4382 102.57 26.8856L102.573 26.8821C103.069 26.3162 103.804 26.0034 104.858 26.0034C105.599 26.0034 106.122 26.1911 106.487 26.5119L106.492 26.5163C106.914 26.8766 107.21 27.3251 107.383 27.8733L107.493 28.2206H111.059L110.957 27.6409C110.841 26.9818 110.623 26.3573 110.304 25.7694C109.981 25.1741 109.555 24.6577 109.028 24.2224C108.509 23.7696 107.894 23.4243 107.19 23.1821C106.486 22.9219 105.706 22.7964 104.858 22.7964Z" fill="black"/>
<path fill-rule="evenodd" clip-rule="evenodd" d="M136.268 22.7964C135.379 22.7964 134.58 22.8991 133.881 23.1145C133.188 23.3148 132.59 23.6138 132.102 24.0215C131.632 24.4111 131.272 24.8797 131.027 25.4244C130.782 25.9558 130.662 26.534 130.662 27.1516C130.662 28.0682 130.873 28.8582 131.346 29.4711C131.78 30.0343 132.328 30.4782 132.981 30.8013C133.603 31.1085 134.271 31.3514 134.983 31.5311L134.992 31.5332C135.662 31.6891 136.284 31.8574 136.857 32.0379L136.867 32.0408C137.415 32.2007 137.847 32.4037 138.177 32.6401C138.421 32.8149 138.551 33.0545 138.551 33.427C138.551 33.7723 138.409 34.0715 138.059 34.346L138.054 34.3506C137.746 34.5993 137.187 34.7732 136.268 34.7732C135.407 34.7732 134.883 34.5929 134.588 34.3327C134.309 34.0614 134.088 33.5388 134.025 32.6405L133.992 32.1799H130.429L130.463 32.7064C130.575 34.4261 131.074 35.7865 132.039 36.6955L132.042 36.6983C133.014 37.5981 134.457 38 136.268 38C137.211 38 138.049 37.8974 138.775 37.6822C139.491 37.4698 140.102 37.1656 140.592 36.7575C141.09 36.3545 141.466 35.8702 141.713 35.3062L141.715 35.3018C141.957 34.7341 142.075 34.1204 142.075 33.4666C142.075 32.5169 141.867 31.7023 141.397 31.0756C140.964 30.4858 140.417 30.0258 139.76 29.7002C139.136 29.3781 138.465 29.1342 137.749 28.9673C137.075 28.7974 136.449 28.6278 135.87 28.4586C135.318 28.2975 134.881 28.1051 134.546 27.8892C134.305 27.7234 134.186 27.5046 134.186 27.1714C134.186 26.8758 134.304 26.6232 134.599 26.3899L134.607 26.3836C134.871 26.1656 135.379 26.0034 136.248 26.0034C137.088 26.0034 137.556 26.1713 137.79 26.3859L137.796 26.3917C138.048 26.6145 138.251 27.0343 138.312 27.7668L138.35 28.2206H141.911L141.873 27.6907C141.761 26.1249 141.279 24.8782 140.354 24.0381C139.432 23.1752 138.032 22.7964 136.268 22.7964ZM132.424 24.3999L132.102 24.0215L132.103 24.0207L132.424 24.3999Z" fill="black"/>
<path fill-rule="evenodd" clip-rule="evenodd" d="M70.24 22.9745H64.9143V37.8218H68.3179V32.5956H70.408L72.9907 37.8218H80.4155L81.5767 34.3179H86.1589L87.3401 37.8218H91.054L85.6911 22.9745H82.1827L76.8336 37.7837L73.7159 31.906C74.4327 31.5534 75.0035 31.07 75.4066 30.4472L75.409 30.4435C75.8938 29.6795 76.1262 28.7865 76.1262 27.7851C76.1262 26.325 75.6505 25.1251 74.6589 24.2496C73.6701 23.3645 72.1591 22.9745 70.24 22.9745ZM68.3179 29.5074V26.0628H70.24C71.1934 26.0628 71.7723 26.2547 72.0911 26.5329C72.4209 26.8206 72.6025 27.2177 72.6025 27.7851C72.6025 28.3341 72.424 28.7356 72.0881 29.0399C71.7687 29.3166 71.1904 29.5074 70.24 29.5074H68.3179ZM83.4117 28.8493L83.8768 27.4401L85.1287 31.2296H82.6092L83.4107 28.8522L83.4117 28.8493Z" fill="black"/>
<path d="M95.8574 22.9745H92.4538V37.8218H95.8574V22.9745Z" fill="black"/>
<path d="M116.764 22.9745H113.36V37.8218H122.971V34.7336H116.764V22.9745Z" fill="black"/>
<path d="M128.169 22.9745H124.765V37.8218H128.169V22.9745Z" fill="black"/>
<path d="M155 22.9745H142.987V26.0628H147.292V37.8218H150.695V26.0628H155V22.9745Z" fill="black"/>
<rect x="1.5" y="1.5" width="37" height="37" fill="white" stroke="black" stroke-width="3"/>
<path d="M10.9103 32.5714H7.51724L6.57931 38H3.71034L4.64828 32.5714H2L2.52414 29.7143H5.14483L5.83448 25.7143H3.24138L3.73793 22.8571H6.33103L7.15862 18H10.0276L9.2 22.8571H12.5931L13.4207 18H16.2897L15.4621 22.8571H18L17.5034 25.7143H14.9655L14.2759 29.7143H16.7586L16.2897 32.5714H13.7793L12.8414 38H9.97241L10.9103 32.5714ZM8.01379 29.7143H11.4069L12.0966 25.7143H8.70345L8.01379 29.7143Z" fill="black"/>
</svg>
