<svg width="79" height="27" viewBox="0 0 79 27" fill="none" xmlns="http://www.w3.org/2000/svg">
<path fill-rule="evenodd" clip-rule="evenodd" d="M18.3184 0.25C17.5869 0.25 16.9051 0.370959 16.2774 0.617627L16.2753 0.618454C15.6582 0.865194 15.1235 1.22139 14.6758 1.6866C14.2366 2.14358 13.8968 2.70326 13.6519 3.3576L13.6501 3.36258C13.4137 4.02275 13.2989 4.75863 13.2989 5.56533V6.33739C13.2989 7.15339 13.4135 7.89434 13.6501 8.55498C13.8849 9.2107 14.2194 9.77575 14.6577 10.2427L14.664 10.2491C15.1115 10.7033 15.6451 11.0532 16.2603 11.2992L16.2676 11.3019C16.8945 11.5376 17.5796 11.6527 18.3184 11.6527C19.0479 11.6527 19.7236 11.5374 20.3412 11.3012L20.3444 11.2999C20.9715 11.0535 21.5079 10.6972 21.9474 10.2295C22.3958 9.76309 22.7357 9.19838 22.9709 8.54257C23.218 7.88154 23.3379 7.14474 23.3379 6.33739V5.56533C23.3379 4.74994 23.2235 4.01347 22.9865 3.36182C22.7513 2.7053 22.4111 2.14002 21.9624 1.6732C21.5226 1.20524 20.9856 0.853516 20.3579 0.616996C19.7391 0.37021 19.0576 0.25 18.3184 0.25ZM15.936 5.56533C15.936 4.52564 16.1752 3.81508 16.5875 3.36545C17.0187 2.89644 17.5836 2.65526 18.3184 2.65526C18.6699 2.65526 18.9875 2.7204 19.276 2.84649L19.2846 2.85001C19.5693 2.9662 19.8105 3.13915 20.0118 3.37194L20.0165 3.37734L20.0214 3.38256C20.2264 3.6019 20.3913 3.89168 20.5078 4.26459L20.5094 4.26971L20.5111 4.27478C20.6349 4.63382 20.7008 5.062 20.7008 5.56533V6.33739C20.7008 7.37409 20.458 8.09026 20.0354 8.55088C19.604 9.0112 19.0434 9.24745 18.3184 9.24745C17.6071 9.24745 17.0451 9.0088 16.6014 8.53598C16.1783 8.07483 15.936 7.3631 15.936 6.33739V5.56533Z" fill="black"/>
<path d="M4.11649 0.383626H0.793934V11.5191H3.34116V4.71439L5.03882 8.77234H7.33814L9.03496 4.68051V11.5191H11.5822V0.383626H8.2896L6.20304 5.40674L4.11649 0.383626Z" fill="black"/>
<path fill-rule="evenodd" clip-rule="evenodd" d="M28.8813 0.383626H25.0605V11.5191H28.8813C30.5717 11.5191 31.923 11.0867 32.874 10.1663L32.8756 10.1647C33.8235 9.23631 34.2754 7.95296 34.2754 6.36708V5.53563C34.2754 3.93375 33.8306 2.64806 32.8898 1.73723C31.9475 0.814944 30.5894 0.383626 28.8813 0.383626ZM27.6077 9.20291V2.6998H28.8813C29.847 2.6998 30.5149 2.94966 30.9514 3.39037L30.9539 3.39284C31.3865 3.82155 31.6383 4.51044 31.6383 5.53563V6.36708C31.6383 7.40332 31.386 8.09657 30.9539 8.52472L30.9514 8.52724C30.5267 8.95615 29.8606 9.20291 28.8813 9.20291H27.6077Z" fill="black"/>
<path d="M43.4857 0.383626H35.9939V11.5191H43.4857V9.20291H38.5411V6.96097H42.5867V4.6448H38.5411V2.6998H43.4857V0.383626Z" fill="black"/>
<path fill-rule="evenodd" clip-rule="evenodd" d="M49.1132 0.383626H45.1275V11.5191H47.6747V7.59941H49.2389L51.1718 11.5191H54.0629L51.7145 7.08223C52.2509 6.81776 52.6781 6.45518 52.9798 5.98812L52.9816 5.98532C53.3444 5.41231 53.5184 4.74262 53.5184 3.99152C53.5184 2.89658 53.1624 1.99672 52.4204 1.34007C51.6804 0.676113 50.5495 0.383626 49.1132 0.383626ZM47.6747 5.28323V2.6998H49.1132C49.8267 2.6998 50.2599 2.84374 50.4985 3.05237C50.7453 3.26815 50.8812 3.56599 50.8812 3.99152C50.8812 4.40326 50.7477 4.7044 50.4963 4.9326C50.2572 5.14018 49.8245 5.28323 49.1132 5.28323H47.6747Z" fill="black"/>
<path d="M58.2872 0.383626H55.1683V11.5191H57.7155V4.63683L61.3393 11.5191H64.4582V0.383626H61.911V7.2659L58.2872 0.383626Z" fill="black"/>
<path d="M5.36396 15.0973C4.64242 15.0973 3.97046 15.2182 3.35249 15.4651C2.74288 15.7026 2.21663 16.0553 1.77829 16.5222C1.3401 16.989 1.00564 17.5537 0.770844 18.209C0.533812 18.8607 0.419342 19.5972 0.419342 20.4126V21.1847C0.419342 22.01 0.533811 22.756 0.770549 23.4171L0.7712 23.4189C1.00562 24.063 1.33402 24.621 1.76009 25.0865L1.76331 25.0899C2.20202 25.5572 2.72878 25.9101 3.33904 26.1477L3.34113 26.1485C3.95874 26.3847 4.63451 26.5 5.36396 26.5C6.01008 26.5 6.60419 26.4056 7.14135 26.21L7.14759 26.2076C7.6749 26.005 8.13921 25.7301 8.53511 25.3814C8.9394 25.0241 9.26302 24.6059 9.50408 24.1287C9.7529 23.6459 9.91921 23.1227 10.0047 22.5615L10.0697 22.1349H7.35921L7.29167 22.4217C7.16605 22.9552 6.93427 23.3605 6.60825 23.6587C6.2982 23.9423 5.89419 24.0947 5.36396 24.0947C5.02019 24.0947 4.71086 24.0338 4.43143 23.9164C4.15553 23.8004 3.91798 23.6319 3.71589 23.4081C3.52254 23.1733 3.35977 22.8765 3.23292 22.51C3.11757 22.1385 3.05647 21.6984 3.05647 21.1847V20.4126C3.05647 19.3613 3.2915 18.6454 3.69456 18.1962C4.11698 17.7365 4.66205 17.5025 5.36396 17.5025C5.63743 17.5025 5.87329 17.5419 6.07616 17.6142C6.29158 17.6911 6.47506 17.7913 6.63021 17.9127C6.7851 18.0338 6.91583 18.1793 7.02322 18.3512L7.02773 18.3581C7.14078 18.5305 7.23246 18.7162 7.30266 18.9162L7.39015 19.1654H10.0797L10.0034 18.7307C9.91636 18.2349 9.74761 17.7697 9.49728 17.3371C9.25542 16.8919 8.93662 16.5056 8.54284 16.18C8.1455 15.8415 7.67613 15.5782 7.14029 15.3869C6.6034 15.1916 6.00966 15.0973 5.36396 15.0973Z" fill="black"/>
<path d="M41.474 15.0973C39.9482 15.0973 38.7152 15.5484 37.8292 16.4917C36.9438 17.4244 36.5294 18.7463 36.5294 20.3978V21.1995C36.5294 22.0325 36.6383 22.7819 36.8639 23.4418C37.0889 24.1 37.4197 24.6632 37.8614 25.1228C38.3001 25.5792 38.8259 25.9258 39.4341 26.1625L39.4396 26.1646C40.0481 26.3907 40.7281 26.5 41.474 26.5C42.8826 26.5 44.0331 26.0772 44.8772 25.1967L44.8788 25.195C45.7262 24.3001 46.119 23.011 46.119 21.3925V20.2493H40.9496V22.5061H43.5863C43.4728 23.0634 43.2657 23.4277 43.0016 23.6468L42.9983 23.6496C42.6684 23.9299 42.1772 24.0947 41.474 24.0947C40.7705 24.0947 40.2251 23.8645 39.8035 23.4146C39.4012 22.9654 39.1666 22.2499 39.1666 21.1995V20.3978C39.1666 19.2947 39.3918 18.5787 39.7618 18.1642L39.7641 18.1616C40.1359 17.7372 40.6853 17.5025 41.474 17.5025C42.0287 17.5025 42.4204 17.6433 42.6936 17.8839L42.6974 17.8872C43.0127 18.1575 43.2344 18.4939 43.3641 18.905L43.4462 19.1654H46.1148L46.0385 18.7307C45.9518 18.2364 45.7888 17.768 45.55 17.327C45.3083 16.8806 44.9893 16.4933 44.595 16.1668C44.2069 15.8272 43.7463 15.5682 43.2194 15.3865C42.6925 15.1914 42.109 15.0973 41.474 15.0973Z" fill="black"/>
<path fill-rule="evenodd" clip-rule="evenodd" d="M64.9815 15.0973C64.3155 15.0973 63.7181 15.1743 63.1949 15.3358C62.6764 15.4861 62.2289 15.7104 61.8631 16.0161C61.5118 16.3083 61.2421 16.6598 61.0587 17.0683C60.8752 17.4669 60.786 17.9005 60.786 18.3637C60.786 19.0511 60.9434 19.6436 61.2974 20.1033C61.6227 20.5257 62.0324 20.8586 62.5214 21.1009C62.9865 21.3314 63.4863 21.5136 64.0199 21.6483L64.0266 21.6499C64.5279 21.7668 64.993 21.8931 65.4222 22.0284L65.4297 22.0306C65.8394 22.1505 66.1628 22.3027 66.41 22.4801C66.5927 22.6112 66.6896 22.7909 66.6896 23.0703C66.6896 23.3292 66.5835 23.5536 66.3218 23.7595L66.3175 23.7629C66.0874 23.9495 65.6687 24.0799 64.9815 24.0799C64.3369 24.0799 63.9448 23.9446 63.7242 23.7495C63.5154 23.5461 63.3496 23.1541 63.3024 22.4804L63.2782 22.1349H60.6115L60.637 22.5298C60.7203 23.8196 61.0939 24.8399 61.8163 25.5216L61.8186 25.5238C62.5458 26.1986 63.6257 26.5 64.9815 26.5C65.6868 26.5 66.3141 26.4231 66.8572 26.2616C67.3929 26.1024 67.8506 25.8742 68.2175 25.5681C68.5897 25.2659 68.8716 24.9026 69.0562 24.4796L69.0576 24.4763C69.2385 24.0506 69.3267 23.5903 69.3267 23.1C69.3267 22.3876 69.1716 21.7768 68.8197 21.3067C68.4957 20.8644 68.086 20.5193 67.5943 20.2751C67.1274 20.0336 66.6254 19.8507 66.0896 19.7255C65.5853 19.5981 65.1165 19.4709 64.683 19.344C64.2702 19.2231 63.9428 19.0788 63.6923 18.9169C63.5122 18.7926 63.4232 18.6284 63.4232 18.3785C63.4232 18.1569 63.5114 17.9674 63.7321 17.7924L63.7379 17.7877C63.9358 17.6242 64.3161 17.5025 64.9665 17.5025C65.5945 17.5025 65.9451 17.6285 66.12 17.7894L66.1249 17.7938C66.313 17.9609 66.4649 18.2757 66.5111 18.8251L66.5397 19.1654H69.2043L69.1759 18.768C69.0921 17.5937 68.7311 16.6586 68.039 16.0286C67.3493 15.3814 66.3017 15.0973 64.9815 15.0973ZM62.1046 16.2999L61.8631 16.0161L61.8639 16.0155L62.1046 16.2999Z" fill="black"/>
<path fill-rule="evenodd" clip-rule="evenodd" d="M15.5667 15.2309H11.581V26.3664H14.1282V22.4467H15.6924L17.6253 26.3664H23.1819L24.0509 23.7384H27.4802L28.3642 26.3664H31.1436L27.1301 15.2309H24.5044L20.5013 26.3377L18.168 21.9295C18.7045 21.665 19.1317 21.3025 19.4333 20.8354L19.4351 20.8326C19.798 20.2596 19.9719 19.5899 19.9719 18.8388C19.9719 17.7438 19.6158 16.8438 18.8738 16.1872C18.1337 15.5233 17.0029 15.2309 15.5667 15.2309ZM14.1282 20.1305V17.5471H15.5667C16.2802 17.5471 16.7134 17.691 16.9521 17.8996C17.1989 18.1154 17.3348 18.4133 17.3348 18.8388C17.3348 19.2506 17.2012 19.5517 16.9498 19.7799C16.7107 19.9875 16.278 20.1305 15.5667 20.1305H14.1282ZM25.4242 19.6369L25.7723 18.58L26.7092 21.4222H24.8236L25.4235 19.6392L25.4242 19.6369Z" fill="black"/>
<path d="M34.7384 15.2309H32.1912V26.3664H34.7384V15.2309Z" fill="black"/>
<path d="M50.3847 15.2309H47.8374V26.3664H55.0296V24.0502H50.3847V15.2309Z" fill="black"/>
<path d="M58.9201 15.2309H56.3729V26.3664H58.9201V15.2309Z" fill="black"/>
<path d="M79 15.2309H70.0098V17.5471H73.2313V26.3664H75.7785V17.5471H79V15.2309Z" fill="black"/>
</svg>
