<svg width="26" height="21" viewBox="0 0 26 21" fill="none" xmlns="http://www.w3.org/2000/svg">
<path d="M18.0804 0C18.5863 0 19.0327 0.209278 19.4196 0.627841C19.8065 1.0464 20 1.52935 20 2.0767V14.9233C20 15.4706 19.8065 15.9536 19.4196 16.3722C19.0327 16.7907 18.5863 17 18.0804 17H1.91964C1.41369 17 0.967264 16.7907 0.580357 16.3722C0.193451 15.9536 0 15.4706 0 14.9233V2.0767C0 1.52935 0.193451 1.0464 0.580357 0.627841C0.967264 0.209278 1.41369 0 1.91964 0H18.0804ZM17.8571 4.39489V2.31818L10 7.96875L2.14286 2.31818V4.39489L10 10.0455L17.8571 4.39489Z" fill="#76767A"/>
<circle cx="21" cy="16" r="4.5" fill="#E52D2D" stroke="white"/>
</svg>
