<svg width="8" height="14" viewBox="0 0 8 14" fill="none" xmlns="http://www.w3.org/2000/svg">
<path d="M5.53269 7L0.289021 1.70833C0.0963392 1.51389 0 1.27778 0 1C0 0.722221 0.0963392 0.486112 0.289021 0.291667C0.481703 0.0972211 0.715669 0 0.990929 0C1.26619 0 1.50015 0.0972211 1.69284 0.291667L7.63841 6.29167C8.10635 6.76389 8.12011 7.22222 7.6797 7.66667L1.69284 13.7083C1.50015 13.9028 1.26619 14 0.990929 14C0.715669 14 0.481703 13.9028 0.289021 13.7083C0.0963392 13.5139 0 13.2778 0 13C0 12.7222 0.0963392 12.4861 0.289021 12.2917L5.53269 7Z" fill="#76767A"/>
</svg>
