<svg width="50" height="50" viewBox="0 0 50 50" fill="none" xmlns="http://www.w3.org/2000/svg">
<path d="M40.2644 9.73558C36.0176 5.48876 30.9295 3.36538 25 3.36538C19.0705 3.36538 13.9824 5.48876 9.73558 9.73558C5.48876 13.9824 3.36538 19.0705 3.36538 25C3.36538 30.9295 5.48876 36.0176 9.73558 40.2644C13.9824 44.5112 19.0705 46.6346 25 46.6346C30.9295 46.6346 36.0176 44.5112 40.2644 40.2644C44.5112 36.0176 46.6346 30.9295 46.6346 25C46.6346 19.0705 44.5112 13.9824 40.2644 9.73558ZM7.33173 7.33173C12.2196 2.44389 18.1089 0 25 0C31.8911 0 37.7804 2.44389 42.6683 7.33173C47.5561 12.2196 50 18.1089 50 25C50 31.8911 47.5561 37.7804 42.6683 42.6683C37.7804 47.5561 31.8911 50 25 50C18.1089 50 12.2196 47.5561 7.33173 42.6683C2.44389 37.7804 0 31.8911 0 25C0 18.1089 2.44389 12.2196 7.33173 7.33173Z" fill="#FF9500"/>
<path d="M23.1523 33.6545C22.7617 34.0528 22.5664 34.5208 22.5664 35.0584C22.5664 35.5961 22.7617 36.0541 23.1523 36.4325C23.543 36.8108 24.0019 37 24.5293 37C25.0566 37 25.5059 36.8108 25.877 36.4325C26.248 36.0541 26.4336 35.5862 26.4336 35.0286C26.4336 34.5108 26.248 34.0528 25.877 33.6545C25.5059 33.2563 25.0566 33.0571 24.5293 33.0571C24.0019 33.0571 23.543 33.2563 23.1523 33.6545ZM27.8984 27.6208C30.6328 26.1074 32 23.9169 32 21.0494C32 18.7792 31.2676 17.0368 29.8027 15.8221C28.3379 14.6074 26.5703 14 24.5 14C22.5469 14 20.8086 14.687 19.2852 16.061C17.7617 17.4351 17 19.3169 17 21.7065C17 22.2242 17.1855 22.6723 17.5566 23.0506C17.9277 23.429 18.3769 23.6182 18.9043 23.6182C19.4316 23.6182 19.8711 23.429 20.2227 23.0506C20.5742 22.6723 20.75 22.2242 20.75 21.7065C20.75 20.4719 21.1309 19.516 21.8926 18.839C22.6543 18.1619 23.5234 17.8234 24.5 17.8234C27 17.8234 28.25 18.8987 28.25 21.0494C28.25 22.4035 27.5469 23.4788 26.1406 24.2753C25.2812 24.7532 24.4805 25.4403 23.7383 26.3364C22.9961 27.2325 22.625 28.2182 22.625 29.2935C22.625 29.8113 22.8105 30.2593 23.1816 30.6377C23.5527 31.016 24.0019 31.2052 24.5293 31.2052C25.0566 31.2052 25.4961 31.016 25.8477 30.6377C26.1992 30.2593 26.375 29.8113 26.375 29.2935C26.375 29.0944 26.541 28.8156 26.873 28.4571C27.2051 28.0987 27.5469 27.8199 27.8984 27.6208Z" fill="#FF9500"/>
</svg>
