<svg width="20" height="20" viewBox="0 0 20 20" fill="none" xmlns="http://www.w3.org/2000/svg">
<path d="M19.7269 18.5417C20.1076 18.9931 20.0903 19.4097 19.675 19.7917C19.5365 19.9306 19.3462 20 19.1039 20C18.8617 20 18.654 19.9132 18.481 19.7396L12.9782 14.1667C11.5247 15.3472 9.84615 15.9375 7.94267 15.9375C5.72771 15.9375 3.85021 15.1563 2.31012 13.5938C0.770033 12.0312 0 10.1563 0 7.96875C0 5.78124 0.770033 3.90626 2.31012 2.34375C3.85021 0.781242 5.72771 0 7.94267 0C10.1576 0 12.0351 0.781242 13.5752 2.34375C15.1153 3.90626 15.8853 5.78124 15.8853 7.96875C15.8853 9.84376 15.3143 11.493 14.1722 12.9167L19.7269 18.5417ZM3.53008 12.3958C4.74138 13.6111 6.21223 14.2188 7.94267 14.2188C9.67311 14.2188 11.144 13.6111 12.3553 12.3958C13.5666 11.1805 14.1722 9.70487 14.1722 7.96875C14.1722 6.23263 13.5666 4.75695 12.3553 3.54167C11.144 2.32638 9.67311 1.71875 7.94267 1.71875C6.21223 1.71875 4.74138 2.32638 3.53008 3.54167C2.31877 4.75695 1.71312 6.23263 1.71312 7.96875C1.71312 9.70487 2.31877 11.1805 3.53008 12.3958Z" fill="#76767A"/>
</svg>
