<svg width="20" height="18" viewBox="0 0 20 18" fill="none" xmlns="http://www.w3.org/2000/svg">
<path d="M19.2411 6.23077C19.4494 6.23077 19.628 6.29567 19.7768 6.42548C19.9256 6.55529 20 6.72115 20 6.92308C20 7.09615 19.9256 7.25481 19.7768 7.39904L19.6429 7.48558L14.2857 11.2067L16.3393 17.0481C16.4583 17.3942 16.3839 17.6538 16.1161 17.8269C15.9375 17.9423 15.8036 18 15.7143 18C15.5952 18 15.4464 17.9423 15.2679 17.8269L10 14.1923L4.73214 17.8269C4.55357 17.9423 4.40476 18 4.28571 18C4.19643 18 4.0625 17.9423 3.88393 17.8269C3.61607 17.6538 3.54167 17.3942 3.66071 17.0481L5.71429 11.2067L0.3125 7.52885C0.104165 7.35577 0 7.19712 0 7.05288V6.92308C0 6.46154 0.238093 6.23077 0.714286 6.23077H7.32143L9.33036 0.475961C9.44941 0.158652 9.67262 0 10 0C10.3274 0 10.5506 0.158652 10.6696 0.475961L12.6786 6.23077H19.2411Z" fill="#76767A"/>
</svg>
