<?xml version="1.0" encoding="utf-8"?>
<!-- Generator: Adobe Illustrator 22.1.0, SVG Export Plug-In . SVG Version: 6.00 Build 0)  -->
<svg version="1.1" id="Layer_1" xmlns="http://www.w3.org/2000/svg" xmlns:xlink="http://www.w3.org/1999/xlink" x="0px" y="0px"
	 viewBox="0 0 20 18" style="enable-background:new 0 0 20 18;" xml:space="preserve">
<style type="text/css">
	.st0{fill:#005ED9;}
</style>
<path class="st0" d="M19.2,6.2c0.2,0,0.4,0.1,0.5,0.2C19.9,6.6,20,6.7,20,6.9c0,0.2-0.1,0.3-0.2,0.5l-0.1,0.1l-5.4,3.7l2.1,5.8
	c0.1,0.3,0,0.6-0.2,0.8c-0.2,0.1-0.3,0.2-0.4,0.2c-0.1,0-0.3-0.1-0.4-0.2L10,14.2l-5.3,3.6C4.6,17.9,4.4,18,4.3,18
	c-0.1,0-0.2-0.1-0.4-0.2c-0.3-0.2-0.3-0.4-0.2-0.8l2.1-5.8L0.3,7.5C0.1,7.4,0,7.2,0,7.1V6.9c0-0.5,0.2-0.7,0.7-0.7h6.6l2-5.8
	C9.4,0.2,9.7,0,10,0c0.3,0,0.6,0.2,0.7,0.5l2,5.8H19.2z"/>
</svg>
