<svg width="16" height="16" viewBox="0 0 16 16" fill="none" xmlns="http://www.w3.org/2000/svg">
<path d="M8 3.41423L3.16098 9.51743H6.83902V16H9.16098V9.51743H12.839L8 3.41423ZM16 1.13808C16 0.825661 15.9621 0.557881 15.8862 0.334728C15.8103 0.111575 15.613 0 15.2943 0H0.705691C0.38699 0 0.189702 0.111575 0.113821 0.334728C0.0379399 0.557881 0 0.825661 0 1.13808C0 1.45049 0.0379399 1.71827 0.113821 1.94142C0.189702 2.16458 0.38699 2.27615 0.705691 2.27615H15.2943C15.613 2.27615 15.8103 2.16458 15.8862 1.94142C15.9621 1.71827 16 1.45049 16 1.13808Z" fill="#76767A"/>
</svg>
