<svg width="10" height="10" viewBox="0 0 10 10" fill="none" xmlns="http://www.w3.org/2000/svg">
<path d="M2.95673 4.03846L4.49519 5.57692L8.79808 1.29808L9.49519 1.99519L4.49519 6.99519L2.25962 4.75962L2.95673 4.03846ZM8.99038 5H10C10 6.37821 9.51122 7.55608 8.53365 8.53365C7.55608 9.51122 6.37821 10 5 10C3.62179 10 2.44392 9.51122 1.46635 8.53365C0.488777 7.55608 0 6.37821 0 5C0 3.62179 0.488777 2.44392 1.46635 1.46635C2.44392 0.488777 3.62179 0 5 0C5.64103 0 6.26602 0.128204 6.875 0.384615L6.10577 1.15385C5.7532 1.05769 5.38462 1.00962 5 1.00962C3.89423 1.00962 2.95273 1.39823 2.17548 2.17548C1.39823 2.95273 1.00962 3.89423 1.00962 5C1.00962 6.10577 1.39823 7.04727 2.17548 7.82452C2.95273 8.60177 3.89423 8.99038 5 8.99038C6.10577 8.99038 7.04727 8.60177 7.82452 7.82452C8.60177 7.04727 8.99038 6.10577 8.99038 5Z" fill="#44B62D"/>
</svg>
