<svg width="13" height="12" viewBox="0 0 13 12" fill="none" xmlns="http://www.w3.org/2000/svg">
<path d="M0 12C0 11.9236 0.00432902 11.8259 0.0129871 11.707C0.0216451 11.5881 0.0681815 11.3939 0.152597 11.1242C0.237013 10.8546 0.354978 10.6455 0.506494 10.4968C0.65368 10.3525 0.939392 10.1943 1.36364 10.0223C1.78788 9.85035 2.26948 9.66883 2.80844 9.47775C3.34741 9.28667 3.74459 9.12744 4 9.00005C4.32035 8.84719 4.5671 8.61471 4.74026 8.30261C4.91342 7.99051 5 7.66886 5 7.33766C5 7.10411 4.86364 6.83661 4.59091 6.53512C4.43074 6.34829 4.29221 6.09352 4.17532 5.7708C3.79004 5.61369 3.5974 5.29735 3.5974 4.82178C3.5974 4.46934 3.66017 4.21457 3.78571 4.05746C3.75108 3.81967 3.71212 3.46936 3.66883 3.00652C3.66017 2.93858 3.65043 2.84835 3.63961 2.73582C3.62879 2.6233 3.63961 2.43116 3.67208 2.1594C3.70455 1.88764 3.77273 1.65835 3.87662 1.47151C4.04113 1.18701 4.25 0.990629 4.50325 0.88235C4.75649 0.774071 4.9632 0.753902 5.12338 0.821841C5.12771 0.821841 5.12987 0.819718 5.12987 0.815472C5.13853 0.77301 5.15801 0.716748 5.18831 0.646685C5.21862 0.576622 5.28138 0.483206 5.37662 0.366435C5.47186 0.249664 5.58225 0.159432 5.70779 0.0957388C5.77706 0.061769 5.88961 0.0352305 6.04545 0.0161224C6.2013 -0.00298563 6.39069 -0.00510875 6.61364 0.00975307C6.83658 0.0246149 7.06818 0.0575227 7.30844 0.108478C7.5487 0.159432 7.78896 0.251787 8.02922 0.385543C8.26948 0.519299 8.48485 0.683839 8.67533 0.879165C8.8658 1.07449 9.02273 1.33245 9.1461 1.65304C9.26948 1.97363 9.33333 2.33774 9.33766 2.74538C9.34199 2.83455 9.34199 2.92159 9.33766 3.00652C9.30303 3.39717 9.26191 3.74748 9.21429 4.05746C9.33983 4.21457 9.4026 4.46934 9.4026 4.82178C9.4026 5.29735 9.20996 5.61369 8.82468 5.7708C8.70779 6.09352 8.56927 6.34829 8.40909 6.53512C8.13636 6.83661 8 7.10411 8 7.33766C8 7.66886 8.08658 7.99051 8.25974 8.30261C8.4329 8.61471 8.67965 8.84719 9 9.00005C9.25541 9.12744 9.6526 9.28667 10.1916 9.47775C10.7305 9.66883 11.2132 9.85035 11.6396 10.0223C12.066 10.1943 12.3528 10.3525 12.5 10.4968C12.6515 10.6455 12.7684 10.845 12.8506 11.0956C12.9329 11.3461 12.9784 11.5605 12.987 11.7389L13 12H0Z" fill="#76767A"/>
</svg>
