<svg width="16" height="12" viewBox="0 0 16 12" fill="none" xmlns="http://www.w3.org/2000/svg">
<path d="M12.7159 0C13.0717 0 13.3857 0.135382 13.6578 0.40615C13.9299 0.676918 14.066 0.989338 14.066 1.34342V9.65388C14.066 10.008 13.9299 10.3204 13.6578 10.5911C13.3857 10.8619 13.0717 10.9973 12.7159 10.9973H1.35008C0.994244 10.9973 0.680275 10.8619 0.408164 10.5911C0.136053 10.3204 0 10.008 0 9.65388V1.34342C0 0.989338 0.136053 0.676918 0.408164 0.40615C0.680275 0.135382 0.994244 0 1.35008 0H12.7159ZM12.5589 2.84305V1.49963L7.03298 5.15498L1.50707 1.49963V2.84305L7.03298 6.4984L12.5589 2.84305Z" fill="#76767A"/>
<path d="M15.5 8.60374C15.5 10.1988 14.1933 11.5 12.5714 11.5C10.9495 11.5 9.64282 10.1988 9.64282 8.60374C9.64282 7.00866 10.9495 5.70752 12.5714 5.70752C14.1933 5.70752 15.5 7.00866 15.5 8.60374Z" fill="#E52D2D" stroke="white"/>
</svg>
