<svg width="12" height="12" viewBox="0 0 12 12" fill="none" xmlns="http://www.w3.org/2000/svg">
<path d="M10.75 0C11.0833 0 11.375 0.124999 11.625 0.375C11.875 0.625001 12 0.916665 12 1.25V10.75C12 11.0833 11.875 11.375 11.625 11.625C11.375 11.875 11.0833 12 10.75 12H1.25C0.916665 12 0.625001 11.875 0.375 11.625C0.124999 11.375 0 11.0833 0 10.75V1.25C0 0.916665 0.124999 0.625001 0.375 0.375C0.625001 0.124999 0.916665 0 1.25 0H10.75ZM7.5 9.5V8H2.5V9.5H7.5ZM9.5 6.75V5.25H2.5V6.75H9.5ZM9.5 4V2.5H2.5V4H9.5Z" fill="#76767A"/>
</svg>
