<svg width="14" height="12" viewBox="0 0 14 12" fill="none" xmlns="http://www.w3.org/2000/svg">
<path d="M13.4688 4.15385C13.6146 4.15385 13.7396 4.19711 13.8438 4.28365C13.9479 4.37019 14 4.48077 14 4.61538C14 4.73077 13.9479 4.83654 13.8438 4.93269L13.75 4.99038L10 7.47115L11.4375 11.3654C11.5208 11.5962 11.4688 11.7692 11.2812 11.8846C11.1562 11.9615 11.0625 12 11 12C10.9167 12 10.8125 11.9615 10.6875 11.8846L7 9.46154L3.3125 11.8846C3.1875 11.9615 3.08333 12 3 12C2.9375 12 2.84375 11.9615 2.71875 11.8846C2.53125 11.7692 2.47917 11.5962 2.5625 11.3654L4 7.47115L0.21875 5.01923C0.0729158 4.90385 0 4.79808 0 4.70192V4.61538C0 4.30769 0.166665 4.15385 0.5 4.15385H5.125L6.53125 0.317308C6.61458 0.105768 6.77083 0 7 0C7.22917 0 7.38542 0.105768 7.46875 0.317308L8.875 4.15385H13.4688Z" fill="#76767A"/>
</svg>
