<svg width="15" height="12" viewBox="0 0 15 12" fill="none" xmlns="http://www.w3.org/2000/svg">
<path d="M15 5.99554C15 2.68428 12.3593 0 9.10171 0C8.73745 0 8.381 0.0338021 8.03504 0.0980228C10.7833 0.608404 12.8665 3.05456 12.8665 5.99554C12.8665 8.93656 10.7833 11.3827 8.03504 11.8931C8.38107 11.9573 8.73752 11.9911 9.10175 11.9911C12.3592 11.9911 15 9.30684 15 5.99554Z" fill="#76767A"/>
<path d="M11.4205 6.19546C11.4205 2.98969 8.8639 0.390964 5.71016 0.390964C2.55649 0.390964 0 2.98969 0 6.19546C0 9.40127 2.55649 12 5.7102 12C8.86387 12 11.4205 9.40131 11.4205 6.19546Z" fill="#76767A"/>
</svg>
