<svg width="12" height="12" viewBox="0 0 12 12" fill="none" xmlns="http://www.w3.org/2000/svg">
<path d="M4.5 6.00001C4.5 5.17302 5.17301 4.50001 6 4.50001H7.99999V0.499993C7.99999 0.223993 7.77649 0 7.5 0H0.499992C0.2235 0 0 0.223993 0 0.499993V11.5C0 11.776 0.2235 12 0.499992 12H7.5C7.77649 12 7.99999 11.776 7.99999 11.5V7.50001H6C5.17301 7.50001 4.5 6.827 4.5 6.00001Z" fill="#76767A"/>
<path d="M11.8875 6.31579C11.8891 6.31394 11.8903 6.31195 11.8918 6.31007C11.9004 6.29925 11.9087 6.28821 11.9164 6.27668C11.92 6.27129 11.923 6.26566 11.9264 6.26015C11.9315 6.25188 11.9366 6.24368 11.9412 6.2351C11.945 6.22807 11.9481 6.2208 11.9515 6.21363C11.9551 6.2062 11.9588 6.19889 11.9619 6.19127C11.9653 6.18307 11.9681 6.1747 11.971 6.16638C11.9735 6.15946 11.9762 6.15267 11.9783 6.14561C11.9813 6.13582 11.9836 6.1259 11.9859 6.11599C11.9873 6.11018 11.989 6.10448 11.9902 6.0986C11.9929 6.08498 11.9948 6.07127 11.9964 6.05751C11.9967 6.05514 11.9972 6.05285 11.9975 6.05046C12.0008 6.01685 12.0008 5.98296 11.9975 5.94935C11.9972 5.94696 11.9967 5.94466 11.9964 5.94229C11.9948 5.92853 11.9929 5.91482 11.9902 5.90121C11.989 5.89532 11.9873 5.88963 11.9859 5.88382C11.9836 5.8739 11.9813 5.86396 11.9783 5.85419C11.9762 5.84714 11.9735 5.84034 11.971 5.83343C11.9681 5.8251 11.9653 5.81671 11.9619 5.80853C11.9588 5.80092 11.9551 5.7936 11.9515 5.78618C11.9481 5.779 11.945 5.77176 11.9412 5.76471C11.9366 5.75613 11.9315 5.74792 11.9264 5.73965C11.923 5.73414 11.92 5.72852 11.9164 5.72313C11.9087 5.7116 11.9004 5.70056 11.8918 5.68973C11.8903 5.68785 11.8891 5.68589 11.8875 5.68401C11.8763 5.67021 11.8643 5.65703 11.8516 5.64452L9.85351 3.64637C9.65801 3.45088 9.34201 3.45088 9.14651 3.64637C8.95102 3.84187 8.95102 4.15788 9.14651 4.35337L10.293 5.49986H6.00001C5.72351 5.49986 5.50001 5.72385 5.50001 5.99986C5.50001 6.27586 5.72351 6.49985 6.00001 6.49985H10.293L9.14651 7.64634C8.95102 7.84183 8.95102 8.15784 9.14651 8.35334C9.24401 8.45084 9.37201 8.49984 9.50002 8.49984C9.62801 8.49984 9.75603 8.45084 9.85353 8.35334L11.8517 6.35519C11.8643 6.34277 11.8763 6.3296 11.8875 6.31579Z" fill="#76767A"/>
</svg>
