<svg width="12" height="24" viewBox="0 0 12 24" fill="none" xmlns="http://www.w3.org/2000/svg">
<path d="M11.2208 6.91071C11.7403 6.91071 12 7.19643 12 7.76786V18.1607C12 18.9107 11.8442 19.6607 11.5325 20.4107C11.2208 21.125 10.8052 21.75 10.2857 22.2857C9.10822 23.4286 7.79222 24 6.33766 24H5.66234C4.13852 24 2.82252 23.4286 1.71429 22.2857C0.571423 21.1071 0 19.7143 0 18.1071V4.66071C0 3.33928 0.450212 2.25 1.35065 1.39286C2.32035 0.464281 3.39393 0 4.57143 0C5.81819 0 6.89177 0.464281 7.79221 1.39286C8.69265 2.25 9.14286 3.33928 9.14286 4.66071V17.25C9.14286 18.1786 8.83117 18.9643 8.20779 19.6071C7.58441 20.25 6.85715 20.5714 6.02597 20.5714C5.12554 20.5714 4.38096 20.2589 3.79221 19.6339C3.20346 19.0089 2.90909 18.2143 2.90909 17.25V10.0714C2.90909 9.5 3.18614 9.21429 3.74026 9.21429C4.25974 9.21429 4.51948 9.5 4.51948 10.0714V17.25C4.51948 17.75 4.67532 18.1607 4.98701 18.4821C5.2987 18.8036 5.64502 18.9643 6.02597 18.9643C6.40693 18.9643 6.75325 18.7946 7.06494 18.4554C7.37663 18.1161 7.53247 17.7143 7.53247 17.25V4.66071C7.53247 3.875 7.2381 3.17857 6.64935 2.57143C6.09524 2 5.4026 1.71429 4.57143 1.71429C3.77489 1.71429 3.06494 2 2.44156 2.57143C1.85281 3.17857 1.55844 3.875 1.55844 4.66071V18.1071C1.55844 19.1429 1.97402 20.125 2.80519 21.0536C3.60174 21.9464 4.55411 22.3929 5.66234 22.3929H6.33766C7.51516 22.3929 8.48485 21.9643 9.24675 21.1071C10.0087 20.25 10.3896 19.2679 10.3896 18.1607V7.76786C10.3896 7.19643 10.6667 6.91071 11.2208 6.91071Z" fill="#76767A"/>
</svg>
